<mxfile host="app.diagrams.net" modified="2023-09-03T09:13:11.747Z" agent="Mozilla/5.0 (Windows NT 10.0; Win64; x64) AppleWebKit/537.36 (KHTML, like Gecko) Chrome/116.0.0.0 Safari/537.36" etag="K28R1JMGzAZ5DTT6wOPu" version="21.3.5" type="github">
  <diagram name="Page-1" id="W5TsfGRUw9488iSCbyvm">
    <mxGraphModel dx="1434" dy="760" grid="1" gridSize="10" guides="1" tooltips="1" connect="1" arrows="1" fold="1" page="1" pageScale="1" pageWidth="900" pageHeight="1600" math="0" shadow="0">
      <root>
        <mxCell id="0" />
        <mxCell id="1" parent="0" />
        <mxCell id="CBsjCl1w19MsXTsMKcwu-22" style="edgeStyle=orthogonalEdgeStyle;rounded=0;orthogonalLoop=1;jettySize=auto;html=1;exitX=1;exitY=0.5;exitDx=0;exitDy=0;exitPerimeter=0;entryX=0.25;entryY=0;entryDx=0;entryDy=0;fontSize=15;" edge="1" parent="1" source="CBsjCl1w19MsXTsMKcwu-1" target="CBsjCl1w19MsXTsMKcwu-15">
          <mxGeometry relative="1" as="geometry" />
        </mxCell>
        <mxCell id="CBsjCl1w19MsXTsMKcwu-1" value="" style="strokeWidth=2;html=1;shape=mxgraph.flowchart.database;whiteSpace=wrap;" vertex="1" parent="1">
          <mxGeometry x="240" y="40" width="110" height="110" as="geometry" />
        </mxCell>
        <mxCell id="CBsjCl1w19MsXTsMKcwu-23" style="edgeStyle=orthogonalEdgeStyle;rounded=0;orthogonalLoop=1;jettySize=auto;html=1;exitX=0;exitY=0.5;exitDx=0;exitDy=0;exitPerimeter=0;entryX=0.653;entryY=0;entryDx=0;entryDy=0;entryPerimeter=0;fontSize=15;" edge="1" parent="1" source="CBsjCl1w19MsXTsMKcwu-2" target="CBsjCl1w19MsXTsMKcwu-15">
          <mxGeometry relative="1" as="geometry" />
        </mxCell>
        <mxCell id="CBsjCl1w19MsXTsMKcwu-2" value="" style="strokeWidth=2;html=1;shape=mxgraph.flowchart.database;whiteSpace=wrap;" vertex="1" parent="1">
          <mxGeometry x="590" y="40" width="110" height="110" as="geometry" />
        </mxCell>
        <mxCell id="CBsjCl1w19MsXTsMKcwu-27" style="edgeStyle=orthogonalEdgeStyle;rounded=0;orthogonalLoop=1;jettySize=auto;html=1;exitX=0.5;exitY=1;exitDx=0;exitDy=0;exitPerimeter=0;fontSize=15;" edge="1" parent="1" source="CBsjCl1w19MsXTsMKcwu-3" target="CBsjCl1w19MsXTsMKcwu-8">
          <mxGeometry relative="1" as="geometry" />
        </mxCell>
        <mxCell id="CBsjCl1w19MsXTsMKcwu-3" value="" style="strokeWidth=2;html=1;shape=mxgraph.flowchart.database;whiteSpace=wrap;fontSize=15;" vertex="1" parent="1">
          <mxGeometry x="291.6" y="430" width="110" height="90" as="geometry" />
        </mxCell>
        <mxCell id="CBsjCl1w19MsXTsMKcwu-35" style="edgeStyle=orthogonalEdgeStyle;rounded=0;orthogonalLoop=1;jettySize=auto;html=1;exitX=0.5;exitY=1;exitDx=0;exitDy=0;exitPerimeter=0;fontSize=15;" edge="1" parent="1" source="CBsjCl1w19MsXTsMKcwu-4" target="CBsjCl1w19MsXTsMKcwu-20">
          <mxGeometry relative="1" as="geometry" />
        </mxCell>
        <mxCell id="CBsjCl1w19MsXTsMKcwu-4" value="核对数据" style="strokeWidth=2;html=1;shape=mxgraph.flowchart.database;whiteSpace=wrap;fontSize=15;" vertex="1" parent="1">
          <mxGeometry x="371.6" y="230" width="170" height="110" as="geometry" />
        </mxCell>
        <mxCell id="CBsjCl1w19MsXTsMKcwu-41" style="edgeStyle=orthogonalEdgeStyle;rounded=0;orthogonalLoop=1;jettySize=auto;html=1;exitX=0;exitY=0.15;exitDx=0;exitDy=0;exitPerimeter=0;entryX=1;entryY=0.25;entryDx=0;entryDy=0;fontSize=15;" edge="1" parent="1" source="CBsjCl1w19MsXTsMKcwu-5" target="CBsjCl1w19MsXTsMKcwu-15">
          <mxGeometry relative="1" as="geometry" />
        </mxCell>
        <mxCell id="CBsjCl1w19MsXTsMKcwu-42" style="edgeStyle=orthogonalEdgeStyle;rounded=0;orthogonalLoop=1;jettySize=auto;html=1;exitX=0;exitY=0.5;exitDx=0;exitDy=0;exitPerimeter=0;entryX=0.991;entryY=0.682;entryDx=0;entryDy=0;entryPerimeter=0;fontSize=15;" edge="1" parent="1" source="CBsjCl1w19MsXTsMKcwu-5" target="CBsjCl1w19MsXTsMKcwu-4">
          <mxGeometry relative="1" as="geometry" />
        </mxCell>
        <mxCell id="CBsjCl1w19MsXTsMKcwu-43" style="edgeStyle=orthogonalEdgeStyle;rounded=0;orthogonalLoop=1;jettySize=auto;html=1;exitX=0;exitY=0.85;exitDx=0;exitDy=0;exitPerimeter=0;entryX=0.5;entryY=0;entryDx=0;entryDy=0;entryPerimeter=0;fontSize=15;" edge="1" parent="1" source="CBsjCl1w19MsXTsMKcwu-5" target="CBsjCl1w19MsXTsMKcwu-7">
          <mxGeometry relative="1" as="geometry" />
        </mxCell>
        <mxCell id="CBsjCl1w19MsXTsMKcwu-5" value="" style="strokeWidth=2;html=1;shape=mxgraph.flowchart.database;whiteSpace=wrap;fontSize=15;" vertex="1" parent="1">
          <mxGeometry x="650" y="275" width="60" height="60" as="geometry" />
        </mxCell>
        <mxCell id="CBsjCl1w19MsXTsMKcwu-28" style="edgeStyle=orthogonalEdgeStyle;rounded=0;orthogonalLoop=1;jettySize=auto;html=1;exitX=0.5;exitY=1;exitDx=0;exitDy=0;exitPerimeter=0;fontSize=15;" edge="1" parent="1" source="CBsjCl1w19MsXTsMKcwu-6" target="CBsjCl1w19MsXTsMKcwu-9">
          <mxGeometry relative="1" as="geometry" />
        </mxCell>
        <mxCell id="CBsjCl1w19MsXTsMKcwu-6" value="" style="strokeWidth=2;html=1;shape=mxgraph.flowchart.database;whiteSpace=wrap;fontSize=15;" vertex="1" parent="1">
          <mxGeometry x="401.6" y="450" width="110" height="90" as="geometry" />
        </mxCell>
        <mxCell id="CBsjCl1w19MsXTsMKcwu-31" style="edgeStyle=orthogonalEdgeStyle;rounded=0;orthogonalLoop=1;jettySize=auto;html=1;exitX=0.5;exitY=1;exitDx=0;exitDy=0;exitPerimeter=0;fontSize=15;" edge="1" parent="1" source="CBsjCl1w19MsXTsMKcwu-7" target="CBsjCl1w19MsXTsMKcwu-11">
          <mxGeometry relative="1" as="geometry" />
        </mxCell>
        <mxCell id="CBsjCl1w19MsXTsMKcwu-7" value="" style="strokeWidth=2;html=1;shape=mxgraph.flowchart.database;whiteSpace=wrap;fontSize=15;" vertex="1" parent="1">
          <mxGeometry x="511.6" y="460" width="110" height="90" as="geometry" />
        </mxCell>
        <mxCell id="CBsjCl1w19MsXTsMKcwu-8" value="" style="image;points=[];aspect=fixed;html=1;align=center;shadow=0;dashed=0;image=img/lib/allied_telesis/computer_and_terminals/Server_Desktop.svg;fontSize=15;" vertex="1" parent="1">
          <mxGeometry x="315.3" y="600" width="62.6" height="79.35" as="geometry" />
        </mxCell>
        <mxCell id="CBsjCl1w19MsXTsMKcwu-9" value="" style="image;points=[];aspect=fixed;html=1;align=center;shadow=0;dashed=0;image=img/lib/allied_telesis/computer_and_terminals/Server_Desktop.svg;fontSize=15;" vertex="1" parent="1">
          <mxGeometry x="425.00000000000006" y="600" width="62.6" height="79.35" as="geometry" />
        </mxCell>
        <mxCell id="CBsjCl1w19MsXTsMKcwu-11" value="" style="image;points=[];aspect=fixed;html=1;align=center;shadow=0;dashed=0;image=img/lib/allied_telesis/computer_and_terminals/Server_Desktop.svg;fontSize=15;" vertex="1" parent="1">
          <mxGeometry x="535.3" y="600" width="62.6" height="79.35" as="geometry" />
        </mxCell>
        <mxCell id="CBsjCl1w19MsXTsMKcwu-12" value="数据集市" style="text;html=1;align=center;verticalAlign=middle;resizable=0;points=[];autosize=1;strokeColor=none;fillColor=none;fontSize=15;" vertex="1" parent="1">
          <mxGeometry x="195" y="460" width="80" height="30" as="geometry" />
        </mxCell>
        <mxCell id="CBsjCl1w19MsXTsMKcwu-32" style="edgeStyle=orthogonalEdgeStyle;rounded=0;orthogonalLoop=1;jettySize=auto;html=1;exitX=0.5;exitY=1;exitDx=0;exitDy=0;entryX=0.5;entryY=0;entryDx=0;entryDy=0;entryPerimeter=0;fontSize=15;" edge="1" parent="1" source="CBsjCl1w19MsXTsMKcwu-15" target="CBsjCl1w19MsXTsMKcwu-4">
          <mxGeometry relative="1" as="geometry" />
        </mxCell>
        <mxCell id="CBsjCl1w19MsXTsMKcwu-15" value="" style="shape=image;html=1;verticalAlign=top;verticalLabelPosition=bottom;labelBackgroundColor=#ffffff;imageAspect=0;aspect=fixed;image=https://cdn0.iconfinder.com/data/icons/phosphor-thin-vol-3/256/funnel-thin-128.png;fontSize=15;" vertex="1" parent="1">
          <mxGeometry x="422.6" y="139" width="68" height="68" as="geometry" />
        </mxCell>
        <mxCell id="CBsjCl1w19MsXTsMKcwu-16" value="操作数据" style="text;html=1;align=center;verticalAlign=middle;resizable=0;points=[];autosize=1;strokeColor=none;fillColor=none;fontSize=15;" vertex="1" parent="1">
          <mxGeometry x="250" y="158" width="80" height="30" as="geometry" />
        </mxCell>
        <mxCell id="CBsjCl1w19MsXTsMKcwu-17" value="外部数据" style="text;html=1;align=center;verticalAlign=middle;resizable=0;points=[];autosize=1;strokeColor=none;fillColor=none;fontSize=15;" vertex="1" parent="1">
          <mxGeometry x="625" y="158" width="80" height="30" as="geometry" />
        </mxCell>
        <mxCell id="CBsjCl1w19MsXTsMKcwu-18" value="ETL工具" style="text;html=1;align=center;verticalAlign=middle;resizable=0;points=[];autosize=1;strokeColor=none;fillColor=none;fontSize=15;" vertex="1" parent="1">
          <mxGeometry x="466.6" y="170" width="80" height="30" as="geometry" />
        </mxCell>
        <mxCell id="CBsjCl1w19MsXTsMKcwu-19" value="元数据" style="text;html=1;align=center;verticalAlign=middle;resizable=0;points=[];autosize=1;strokeColor=none;fillColor=none;fontSize=15;" vertex="1" parent="1">
          <mxGeometry x="645" y="335" width="70" height="30" as="geometry" />
        </mxCell>
        <mxCell id="CBsjCl1w19MsXTsMKcwu-25" style="edgeStyle=orthogonalEdgeStyle;rounded=0;orthogonalLoop=1;jettySize=auto;html=1;entryX=0.5;entryY=0;entryDx=0;entryDy=0;entryPerimeter=0;fontSize=15;" edge="1" parent="1" source="CBsjCl1w19MsXTsMKcwu-20" target="CBsjCl1w19MsXTsMKcwu-6">
          <mxGeometry relative="1" as="geometry" />
        </mxCell>
        <mxCell id="CBsjCl1w19MsXTsMKcwu-20" value="" style="sketch=0;outlineConnect=0;fontColor=#232F3E;gradientColor=none;fillColor=#232F3D;strokeColor=none;dashed=0;verticalLabelPosition=bottom;verticalAlign=top;align=center;html=1;fontSize=15;fontStyle=0;aspect=fixed;pointerEvents=1;shape=mxgraph.aws4.gear;" vertex="1" parent="1">
          <mxGeometry x="431.3" y="365" width="50" height="50" as="geometry" />
        </mxCell>
        <mxCell id="CBsjCl1w19MsXTsMKcwu-36" value="OLAP工具" style="text;html=1;align=center;verticalAlign=middle;resizable=0;points=[];autosize=1;strokeColor=none;fillColor=none;fontSize=15;" vertex="1" parent="1">
          <mxGeometry x="292.9" y="690" width="90" height="30" as="geometry" />
        </mxCell>
        <mxCell id="CBsjCl1w19MsXTsMKcwu-37" value="数据挖掘工具" style="text;html=1;align=center;verticalAlign=middle;resizable=0;points=[];autosize=1;strokeColor=none;fillColor=none;fontSize=15;" vertex="1" parent="1">
          <mxGeometry x="401.3" y="690" width="110" height="30" as="geometry" />
        </mxCell>
        <mxCell id="CBsjCl1w19MsXTsMKcwu-38" value="报告工具" style="text;html=1;align=center;verticalAlign=middle;resizable=0;points=[];autosize=1;strokeColor=none;fillColor=none;fontSize=15;" vertex="1" parent="1">
          <mxGeometry x="526.6" y="690" width="80" height="30" as="geometry" />
        </mxCell>
        <mxCell id="CBsjCl1w19MsXTsMKcwu-44" value="加载" style="text;html=1;align=center;verticalAlign=middle;resizable=0;points=[];autosize=1;strokeColor=none;fillColor=none;fontSize=15;" vertex="1" parent="1">
          <mxGeometry x="377.9" y="375" width="50" height="30" as="geometry" />
        </mxCell>
      </root>
    </mxGraphModel>
  </diagram>
</mxfile>
